<?xml version="1.0" standalone="no"?>
<!DOCTYPE svg PUBLIC "-//W3C//DTD SVG 20010904//EN"
 "http://www.w3.org/TR/2001/REC-SVG-20010904/DTD/svg10.dtd">
<svg version="1.0" xmlns="http://www.w3.org/2000/svg"
 width="626.000000pt" height="626.000000pt" viewBox="0 0 626.000000 626.000000"
 preserveAspectRatio="xMidYMid meet">

<g transform="translate(0.000000,626.000000) scale(0.100000,-0.100000)"
fill="#000000" stroke="none">
<path d="M2976 5114 c-198 -48 -353 -217 -401 -438 -24 -107 -16 -317 15 -431
112 -413 438 -624 735 -479 155 76 292 270 347 491 19 73 22 115 22 248 0 146
-3 167 -27 241 -64 192 -194 316 -383 364 -91 24 -221 25 -308 4z"/>
<path d="M2689 3709 c-279 -42 -531 -216 -644 -444 -71 -143 -75 -180 -75
-620 l0 -392 68 -45 c37 -25 85 -55 108 -66 l41 -21 6 -108 c7 -135 34 -242
92 -358 119 -241 344 -426 605 -497 72 -19 109 -23 240 -23 183 0 269 19 415
90 312 153 525 486 525 820 l0 73 66 36 c36 20 85 51 110 69 l44 32 -3 415
c-3 368 -5 421 -21 470 -71 217 -213 379 -421 481 -95 46 -238 89 -298 89 -19
0 -47 -15 -85 -46 -207 -169 -475 -165 -678 9 -47 41 -51 43 -95 36z m627
-879 c515 -132 753 -708 483 -1168 -44 -73 -188 -217 -261 -261 -131 -76 -257
-111 -408 -111 -223 0 -391 72 -555 235 -75 75 -98 106 -138 185 -63 127 -87
225 -87 360 0 361 238 667 590 759 105 28 270 28 376 1z"/>
<path d="M3060 2622 c-50 -25 -76 -81 -61 -132 32 -108 179 -124 226 -24 31
66 6 132 -62 160 -42 18 -61 18 -103 -4z"/>
<path d="M3100 2254 c-58 -12 -120 -23 -137 -23 -29 -1 -33 -4 -33 -29 0 -23
6 -30 32 -37 54 -16 58 -35 58 -300 0 -271 -3 -284 -63 -299 -32 -8 -37 -13
-37 -38 l0 -28 210 0 210 0 0 29 c0 25 -5 30 -35 35 -65 13 -65 13 -65 383 0
311 -1 333 -17 332 -10 -1 -65 -12 -123 -25z"/>
</g>
</svg>
