<?xml version="1.0" standalone="no"?>
<!DOCTYPE svg PUBLIC "-//W3C//DTD SVG 20010904//EN"
 "http://www.w3.org/TR/2001/REC-SVG-20010904/DTD/svg10.dtd">
<svg version="1.0" xmlns="http://www.w3.org/2000/svg"
 width="1020.000000pt" height="1020.000000pt" viewBox="0 0 1020.000000 1020.000000"
 preserveAspectRatio="xMidYMid meet">

<g transform="translate(0.000000,1020.000000) scale(0.100000,-0.100000)"
fill="#000000" stroke="none">
<path d="M0 5100 l0 -5100 5100 0 5100 0 0 5100 0 5100 -5100 0 -5100 0 0
-5100z m6919 3045 c184 -44 338 -195 387 -380 18 -66 17 -206 -1 -274 -48
-181 -197 -329 -380 -377 -59 -16 -192 -18 -254 -3 -92 21 -190 76 -254 142
-75 76 -111 140 -137 243 -49 192 -2 363 139 505 137 137 313 188 500 144z
m-2624 -2260 c227 -60 396 -276 398 -509 0 -93 -17 -165 -61 -249 -66 -127
-176 -221 -314 -268 -53 -18 -81 -20 -178 -17 -112 3 -117 4 -205 47 -161 78
-265 214 -300 392 -16 79 -16 92 -1 170 39 211 191 380 387 433 72 19 201 20
274 1z"/>
</g>
</svg>
