<?xml version="1.0" standalone="no"?>
<!DOCTYPE svg PUBLIC "-//W3C//DTD SVG 20010904//EN"
 "http://www.w3.org/TR/2001/REC-SVG-20010904/DTD/svg10.dtd">
<svg version="1.0" xmlns="http://www.w3.org/2000/svg"
 width="768.000000pt" height="233.000000pt" viewBox="0 0 768.000000 233.000000"
 preserveAspectRatio="xMidYMid meet">

<g transform="translate(0.000000,233.000000) scale(0.100000,-0.100000)"
fill="#000000" stroke="none">
<path d="M0 1165 l0 -1165 3840 0 3840 0 0 1165 0 1165 -3840 0 -3840 0 0
-1165z m743 185 c71 -113 161 -257 198 -320 l69 -114 0 322 0 322 45 0 45 0 0
-380 0 -381 -62 3 -61 3 -54 85 c-115 183 -291 467 -316 510 l-27 45 0 -322 0
-323 -45 0 -45 0 0 380 0 381 61 -3 62 -3 130 -205z m689 -62 c3 -270 3 -273
28 -317 35 -62 85 -85 180 -85 80 0 117 13 157 56 43 46 47 71 51 351 l4 267
44 0 44 0 0 -268 c0 -316 -6 -348 -75 -417 -54 -55 -119 -76 -231 -76 -143 0
-226 48 -276 156 -22 48 -23 63 -26 328 l-3 277 50 0 50 0 3 -272z m981 29
c48 -133 96 -273 108 -312 11 -38 24 -74 28 -78 4 -4 20 32 35 80 15 48 64
192 110 318 l83 230 74 3 74 3 0 -381 0 -380 -48 0 -47 0 4 328 c2 180 2 323
-1 317 -2 -5 -57 -152 -121 -325 l-117 -315 -43 0 -43 0 -120 320 c-65 176
-120 324 -122 330 -2 5 -1 -140 1 -323 l5 -332 -47 0 -46 0 0 380 0 380 73 0
72 0 88 -243z m1307 203 l0 -40 -222 -2 -223 -3 -3 -122 -3 -123 176 0 175 0
0 -45 0 -45 -175 0 -175 0 0 -125 0 -125 233 -2 232 -3 3 -42 3 -43 -280 0
-281 0 0 380 0 380 270 0 270 0 0 -40z m591 24 c157 -45 249 -179 249 -364 0
-139 -51 -251 -143 -313 -82 -56 -136 -67 -329 -67 l-168 0 0 380 0 380 168 0
c123 0 183 -4 223 -16z m549 -364 l0 -380 -47 0 -48 0 0 380 0 380 48 0 47 0
0 -380z m782 363 c26 -23 24 -78 -4 -97 -47 -33 -108 -4 -108 51 0 55 70 85
112 46z m695 -345 c78 -200 145 -371 149 -380 5 -16 0 -18 -44 -18 l-50 0 -40
103 -39 102 -175 3 -175 2 -40 -102 -39 -103 -53 -3 c-29 -2 -51 1 -48 5 4 7
254 641 286 726 10 25 14 27 68 27 l58 0 142 -362z m405 25 l3 -338 200 4
c111 2 211 1 223 -3 18 -6 22 -15 22 -47 l0 -39 -270 0 -270 0 0 380 0 380 45
0 45 0 2 -337z m-1427 32 c28 -27 30 -37 14 -68 -16 -30 -28 -37 -66 -37 -57
0 -82 63 -41 107 28 30 63 29 93 -2z"/>
<path d="M4020 1186 l0 -296 120 0 c170 0 239 33 289 139 23 49 26 69 26 156
-1 89 -4 106 -28 152 -51 99 -121 133 -289 141 l-118 5 0 -297z"/>
<path d="M6070 1293 c-35 -93 -65 -174 -68 -180 -3 -10 27 -13 132 -13 75 0
136 4 136 9 0 11 -125 339 -132 346 -3 3 -33 -70 -68 -162z"/>
</g>
</svg>
